<svg id="Layer_1" data-name="Layer 1" xmlns="http://www.w3.org/2000/svg" viewBox="0 0 74.13 78"><defs><style>.cls-1{fill:#009688;}</style></defs><title>logo-glopem-ges</title><path class="cls-1" d="M61.22,47.51a7.79,7.79,0,0,1-1.78-1,2.83,2.83,0,0,1-1.19-2.27,3,3,0,0,1,1.07-2.46A3.52,3.52,0,0,1,61.26,41Zm5.16,9.37a3.18,3.18,0,0,0-1-2.42,6.57,6.57,0,0,0-2.48-1.36l0,7.4a4.14,4.14,0,0,0,2.39-.92A3.44,3.44,0,0,0,66.38,56.88Zm11-43.24V66.36A12.66,12.66,0,0,1,64.79,79H15.94A12.66,12.66,0,0,1,3.3,66.36V17.51a12.6,12.6,0,0,1,6.53-11A12.63,12.63,0,0,1,20.25,1H64.79A12.66,12.66,0,0,1,77.43,13.64ZM52.85,56.3A7.69,7.69,0,0,0,55,62.21a9.56,9.56,0,0,0,6.15,2.37l0,3.66,1.71,0,0-3.69a9.33,9.33,0,0,0,6-2.08,7.39,7.39,0,0,0,2.56-5.9,6.94,6.94,0,0,0-1.82-5.09,14.93,14.93,0,0,0-6.22-3.24l-.47-.15L63,41a3.67,3.67,0,0,1,2.28.89,4.21,4.21,0,0,1,.89,3l4.81.06a7.37,7.37,0,0,0-2.25-5.79A9.17,9.17,0,0,0,63,37l0-2.6-1.71,0,0,2.66a8.62,8.62,0,0,0-5.42,2,7.24,7.24,0,0,0-2.38,5.72,6.2,6.2,0,0,0,1.92,4.78,16,16,0,0,0,5.79,3l-.05,7.92a3.82,3.82,0,0,1-2.27-1.15,5,5,0,0,1-.9-3.61l-5.11-.08ZM9.9,62.49A10.26,10.26,0,0,0,10.06,64l3.87-1.14c0-.14,0-.28,0-.42a5.62,5.62,0,1,1,.69,2.62l-3.94,1.16a10.34,10.34,0,0,0,9.61,6.56h7.47V3.3H20.25A10.3,10.3,0,0,0,12.8,6.5,10.43,10.43,0,0,0,11.49,8.2,10.24,10.24,0,0,0,9.9,13.64V17l4-1.18c0-.14,0-.28,0-.42a5.62,5.62,0,1,1,.69,2.62L9.9,19.43V32.12l4-1.18c0-.14,0-.28,0-.42a5.62,5.62,0,1,1,.69,2.62L9.9,34.52V47.93l4-1.18c0-.14,0-.27,0-.42A5.62,5.62,0,1,1,14.57,49L9.89,50.33V62.5h0Zm9.86-15.06-2.86.84a3.2,3.2,0,0,0,2.54,1.31,3.25,3.25,0,1,0-3.2-3.51l2.87-.85Zm0-15.8-2.86.84a3.2,3.2,0,0,0,2.54,1.31,3.25,3.25,0,1,0-3.2-3.51l2.87-.84Zm0-15.09-2.86.84a3.2,3.2,0,0,0,2.54,1.31,3.25,3.25,0,1,0-3.2-3.51l2.87-.84Zm0,47.05-2.86.84a3.2,3.2,0,0,0,2.54,1.31,3.25,3.25,0,1,0-3.2-3.51l2.87-.85ZM5.59,18.31l2-.59V13.64a12.5,12.5,0,0,1,.26-2.52A10.25,10.25,0,0,0,5.59,17.5v.8Zm0,15.09,2-.59V20.11l-2,.59Zm0,15.8,2-.59V35.2l-2,.59Zm0,16.16,2.24-.66a12.55,12.55,0,0,1-.23-2.21V51l-2,.59V65.36Zm68.2,6a12.59,12.59,0,0,1-9,3.79H20.25a12.63,12.63,0,0,1-11.8-8.22l-2.72.79a10.32,10.32,0,0,0,10.21,9H64.79A10.32,10.32,0,0,0,73.79,71.35Z" transform="translate(-3.3 -1)"/></svg>