<svg id="Layer_1" data-name="Layer 1" xmlns="http://www.w3.org/2000/svg" viewBox="0 0 78 74.17"><defs><style>.cls-1{fill:#f44336;}</style></defs><title>logo-glopem-repo</title><path class="cls-1" d="M27.06,65.62H12.55a5,5,0,0,1-5.07-5v-45a5,5,0,0,1,5.07-4.93H47.67a5,5,0,0,1,5,4.93V53.38l6.49-7.71V10.87a6.54,6.54,0,0,0-6.52-6.6H7.29A6.3,6.3,0,0,0,1,10.6V65.66a6.58,6.58,0,0,0,6.57,6.61H33l-3-2.61A11.5,11.5,0,0,1,27.06,65.62Z" transform="translate(-1 -4.26)"/><path class="cls-1" d="M45,19.06H15.84a3.24,3.24,0,0,0,0,6.48H45a3.24,3.24,0,0,0,0-6.48Z" transform="translate(-1 -4.26)"/><path class="cls-1" d="M45,29.87H15.84a3.24,3.24,0,0,0,0,6.48H45a3.24,3.24,0,0,0,0-6.48Z" transform="translate(-1 -4.26)"/><path class="cls-1" d="M45,40.68H15.84a3.16,3.16,0,1,0,0,6.32H45a3.16,3.16,0,1,0,0-6.32Z" transform="translate(-1 -4.26)"/><path class="cls-1" d="M12.61,54.15a3.16,3.16,0,0,0,3.23,3.16H26.71a13.11,13.11,0,0,1,2.11-3.64A11.49,11.49,0,0,1,32.29,51H15.84A3.18,3.18,0,0,0,12.61,54.15Z" transform="translate(-1 -4.26)"/><path class="cls-1" d="M45,51H42.54a8.88,8.88,0,0,1,2.25,1.5L48,55.25a3.07,3.07,0,0,0,.19-1.07A3.21,3.21,0,0,0,45,51Z" transform="translate(-1 -4.26)"/><path class="cls-1" d="M77,42.32A5.65,5.65,0,0,0,69,43L50.41,64.77l-9.3-8a5.66,5.66,0,1,0-7.38,8.59L47.34,77.07A5.7,5.7,0,0,0,51,78.44l.45,0a5.67,5.67,0,0,0,3.87-2l22.3-26.14A5.66,5.66,0,0,0,77,42.32Z" transform="translate(-1 -4.26)"/></svg>