<svg id="Layer_1" data-name="Layer 1" xmlns="http://www.w3.org/2000/svg" viewBox="0 0 68.88 78.29"><defs><style>.cls-1{fill:#fff;}</style></defs><title>logo-glopem-im</title><path class="cls-1" d="M5,14.21A8.46,8.46,0,1,1,21.1,8.91L37.72,59.28a11.1,11.1,0,0,0-4.84-.18L16.79,10.33a3.92,3.92,0,0,0-7.44,2.46A2.27,2.27,0,1,1,5,14.21ZM70.51,53.72l-27.23,9a11.12,11.12,0,0,1,2.22,3.87c0,.05,0,.11,0,.16L71.93,58a2.27,2.27,0,1,0-1.42-4.31ZM43.35,67.29a8.91,8.91,0,1,1-11.26-5.67A8.91,8.91,0,0,1,43.35,67.29Zm-4.23,1.4a4.46,4.46,0,1,0-2.84,5.63A4.46,4.46,0,0,0,39.12,68.69ZM63.63,19.56l9.24,28A1.13,1.13,0,0,1,72.15,49l-29.09,9.6a1.13,1.13,0,0,1-1.43-.72l-9.24-28a1.13,1.13,0,0,1,.72-1.43l29.09-9.6A1.13,1.13,0,0,1,63.63,19.56ZM59.78,35.83l-9.91-5.45L45.16,40.66l3.12,1.44,2-4.45L54,48.81l3.52-1.16L53.85,36.49l4.28,2.36ZM51.14,19.12,45.23,1.21a.73.73,0,0,0-.92-.46L39.25,2.42l0,0,0,0-2.67.88L38.71,10l-3,1-2.2-6.67-2.67.88,0,0,0,0-5,1.66a.73.73,0,0,0-.46.92l5.91,17.91a.73.73,0,0,0,.92.46L50.68,20A.73.73,0,0,0,51.14,19.12Z" transform="translate(-4.61 -0.71)"/></svg>