<svg id="Layer_1" data-name="Layer 1" xmlns="http://www.w3.org/2000/svg" viewBox="0 0 78 67.45"><defs><style>.cls-1{fill:#ff5722;}</style></defs><title>logo-glopem-certi</title><path class="cls-1" d="M73.6,6.53H6.4A5.41,5.41,0,0,0,1,11.93V57.52a5.41,5.41,0,0,0,5.4,5.4H45.58L44.4,70.13a3.12,3.12,0,0,0,4.7,3.39l8.45-4.45a1.78,1.78,0,0,1,1.12,0l8.45,4.45a3.77,3.77,0,0,0,1.75.46,3,3,0,0,0,1.75-.55,3.28,3.28,0,0,0,1.2-3.29l-1.18-7.21H73.6a5.41,5.41,0,0,0,5.4-5.4V11.93A5.41,5.41,0,0,0,73.6,6.53ZM58.12,53.66a9.42,9.42,0,1,1,9.42-9.42A9.43,9.43,0,0,1,58.12,53.66ZM60.84,65a6.25,6.25,0,0,0-5.44,0l-6,3.15,1.9-11.59a14,14,0,0,0,13.59,0L65.65,61v0l1.16,7Zm13.53-7.46a.78.78,0,0,1-.77.77h-3.7L69,53.13v-.06a14,14,0,1,0-21.83,0v.06l-.85,5.16H6.4a.78.78,0,0,1-.77-.77V11.93a.78.78,0,0,1,.77-.77H73.6a.78.78,0,0,1,.77.77Z" transform="translate(-1 -6.53)"/><path class="cls-1" d="M65.41,19.85H12.92a2.32,2.32,0,1,0,0,4.63H65.41a2.32,2.32,0,1,0,0-4.63Z" transform="translate(-1 -6.53)"/><path class="cls-1" d="M35.15,32.41H12.92a2.32,2.32,0,0,0,0,4.63H35.15a2.32,2.32,0,1,0,0-4.63Z" transform="translate(-1 -6.53)"/></svg>