<svg id="Layer_1" data-name="Layer 1" xmlns="http://www.w3.org/2000/svg" viewBox="0 0 74.7 78"><defs><style>.cls-1{fill:#673ab7;}</style></defs><title>logo-glopem-simu</title><path class="cls-1" d="M73.9,71.5H72.31v-39h0A9.3,9.3,0,0,1,67,30.81a9.25,9.25,0,0,1-5.36,1.7,9.13,9.13,0,0,1-1.19-.1v29a3,3,0,0,1-3,3H46.68V56.2l3.8,6.34a2.39,2.39,0,1,0,4.11-2.46L47,47.33a2.37,2.37,0,0,0-2.19-1.13h-8.9a2.37,2.37,0,0,0-2.22,1.14L26,60.07a2.39,2.39,0,1,0,4.11,2.46l3.82-6.38v8.25H23.15a3,3,0,0,1-3-3v-29a9.13,9.13,0,0,1-1.19.1,9.42,9.42,0,0,1-1.83-.18,9.25,9.25,0,0,1-3.53-1.52,9.3,9.3,0,0,1-5.32,1.7h0v39H6.7a3.75,3.75,0,0,0,0,7.5H73.9a3.75,3.75,0,1,0,0-7.5Z" transform="translate(-2.95 -1)"/><path class="cls-1" d="M40.3,32.74c-2.75,0-5,2.56-5,5.71s2.24,5.71,5,5.71,5-2.56,5-5.71S43.06,32.74,40.3,32.74Z" transform="translate(-2.95 -1)"/><path class="cls-1" d="M6.76,28.29A5.33,5.33,0,0,0,13.4,24.7l.28-.94a5.32,5.32,0,0,0,10.51.45l.13-.65a5.33,5.33,0,0,0,4.78,4.92l.54,0a5.34,5.34,0,0,0,5.3-4.81l0-.4a5.32,5.32,0,0,0,10.64,0l0,.4A5.34,5.34,0,0,0,51,28.51l.54,0a5.32,5.32,0,0,0,4.78-4.92l.13.65a5.32,5.32,0,0,0,10.51-.45l.28.94a5.34,5.34,0,0,0,5.11,3.81,5.39,5.39,0,0,0,1.53-.22,5.34,5.34,0,0,0,3.59-6.64L72.61,5.53A6.35,6.35,0,0,0,66.52,1H14.07A6.35,6.35,0,0,0,8,5.53L3.18,21.65A5.34,5.34,0,0,0,6.76,28.29Z" transform="translate(-2.95 -1)"/></svg>