<svg id="Layer_1" data-name="Layer 1" xmlns="http://www.w3.org/2000/svg" viewBox="0 0 77.42 53.47"><defs><style>.cls-1{fill:#fff;}</style></defs><title>logo-glopem-mp</title><path class="cls-1" d="M49.51,43.55v2.67H2.33v4.32S8.13,64.78,8.17,65c1.82-1.65,5.73-4.2,10.67-1.62a7.67,7.67,0,0,0,7.13,0,8.56,8.56,0,0,1,8.34,0,7.66,7.66,0,0,0,7.13,0,8.56,8.56,0,0,1,8.34,0,7.65,7.65,0,0,0,7.13,0c2.5-1.32,6.18-2,10.45,1.41L78.42,43.55H49.51Z" transform="translate(-1 -11.57)"/><path class="cls-1" d="M5,44.88H18.32V27.56l3.31-2.67h-10V21H15.1V19.47H11.66v-7.9H10.33v7.91H6.88V21h3.44v3.86H1v2.67H5V44.88Zm6.58-15.4h4.33v4H11.58Zm0,6.38h4.33v4H11.58Z" transform="translate(-1 -11.57)"/><rect class="cls-1" x="19.65" y="21.89" width="27.43" height="11.42"/><rect class="cls-1" x="48.5" y="19.14" width="27.43" height="11.42"/><rect class="cls-1" x="37.21" y="9.05" width="9.88" height="11.42"/><rect class="cls-1" x="25.47" y="14.06" width="9.88" height="6.41"/><rect class="cls-1" x="25.47" y="6.23" width="9.88" height="6.41"/><rect class="cls-1" x="48.5" y="3.48" width="9.87" height="6.41"/><rect class="cls-1" x="48.5" y="11.31" width="21.06" height="6.41"/></svg>